/* XPM */
static char * icon_36x36_xpm[] = {
"36 36 110 2",
"  	c #3286D3",
". 	c #62A2DD",
"+ 	c #CCE1F4",
"@ 	c #FFFFFF",
"# 	c #FDEF02",
"$ 	c #FFF000",
"% 	c #BFDAF1",
"& 	c #F9ED07",
"* 	c #F7EC08",
"= 	c #93BFE8",
"- 	c #E1EDF9",
"; 	c #FCFDFE",
"> 	c #8FB673",
", 	c #9DBD65",
"' 	c #3688CF",
") 	c #F4EA0C",
"! 	c #F1E90E",
"~ 	c #3487D1",
"{ 	c #97BA6B",
"] 	c #86B27C",
"^ 	c #74ADE1",
"/ 	c #E6F0FA",
"( 	c #3C8CD5",
"_ 	c #3E8DD6",
": 	c #4791BD",
"< 	c #F5EB0A",
"[ 	c #D6DB2A",
"} 	c #5196B3",
"| 	c #EEE711",
"1 	c #ECE614",
"2 	c #4F95B5",
"3 	c #D2D92E",
"4 	c #F2E90D",
"5 	c #438FC2",
"6 	c #B9D6F0",
"7 	c #5399DA",
"8 	c #B7CB4A",
"9 	c #86B17D",
"0 	c #E9E516",
"a 	c #E6E31A",
"b 	c #82B080",
"c 	c #F6EB09",
"d 	c #B0C751",
"e 	c #5D9FDC",
"f 	c #8BB477",
"g 	c #C2D03F",
"h 	c #EDE613",
"i 	c #EAE516",
"j 	c #C0D041",
"k 	c #90B772",
"l 	c #408ED6",
"m 	c #E4EFF9",
"n 	c #4E95B6",
"o 	c #CCD535",
"p 	c #CCD634",
"q 	c #5095B4",
"r 	c #3386D2",
"s 	c #F5EB0B",
"t 	c #85B17E",
"u 	c #4992BB",
"v 	c #C5D23C",
"w 	c #C1D040",
"x 	c #4891BD",
"y 	c #65A4DE",
"z 	c #A5CAEC",
"A 	c #B9CC48",
"B 	c #7DAD86",
"C 	c #F0E810",
"D 	c #F3EA0C",
"E 	c #82AF81",
"F 	c #4A92BA",
"G 	c #C9D437",
"H 	c #4D94B8",
"I 	c #89B37A",
"J 	c #CDD633",
"K 	c #E4E21C",
"L 	c #BBCD46",
"M 	c #F9ED06",
"N 	c #E2E11E",
"O 	c #579CDB",
"P 	c #A7CBEC",
"Q 	c #D9DC27",
"R 	c #5699AE",
"S 	c #4D94B7",
"T 	c #D1D82F",
"U 	c #4992BC",
"V 	c #A0BF62",
"W 	c #3788CE",
"X 	c #F1E90F",
"Y 	c #9ABC68",
"Z 	c #8EB674",
"` 	c #D8E8F7",
" .	c #4F97D9",
"..	c #F8EC07",
"+.	c #DAE9F7",
"@.	c #FEF001",
"#.	c #3286D1",
"$.	c #32927D",
"%.	c #329A47",
"&.	c #329F26",
"*.	c #32A213",
"=.	c #32A307",
"-.	c #32A402",
";.	c #32A400",
">.	c #32A500",
",.	c #32956C",
"'.	c #32A020",
").	c #32937A",
"!.	c #329759",
"~.	c #32A401",
"                                                                        ",
"                                                                        ",
"                                                    . + @ @ @ + .       ",
"                                # $ $ #           % @ @ @ @ @ @ @ %     ",
"                                & $ $ *           % @ @ @ @ @ + = - ; ; ",
"                    > , '       ) $ $ !       ~ { ] . + @ @ ^ @ @ @ @ @ ",
"/ (     _         : < $ [ }     | $ $ 1     2 3 $ 4 5       @ @ @ @ @ @ ",
"@ ; 6 @ @ @ 7     8 $ $ $ * 9   0 $ $ a   b c $ $ $ d       ^ @ @ @ @ @ ",
"@ @ @ @ @ @ @ e   f * $ $ $ $ g h $ $ i j $ $ $ $ & k         l = - ; ; ",
"@ @ @ @ @ @ @ m     n o $ $ $ $ $ $ $ $ $ $ $ $ p q                     ",
"@ @ @ @ @ @ @ m       r 9 s $ $ $ $ $ $ $ $ ) t r                       ",
"@ @ @ @ @ @ @ e           u v $ $ $ $ $ $ w x                           ",
"@ y   ( z @ 7             5 A $ $ $ $ $ $ j :                           ",
"y (                     B C $ $ $ $ $ $ $ $ D E                         ",
"                    F v $ $ $ $ $ $ $ $ $ $ $ $ G H                     ",
"                  I < $ $ $ $ J h $ $ K 8 $ $ $ $ c f                   ",
"                  L $ $ $ M k ~ a $ $ N   B s $ $ $ L       O P m       ",
"                  u c $ Q R     1 $ $ 0     S T $ c U   l @ @ @ @       ",
"                    k V W       ! $ $ X       ~ Y Z     ` @ @ @ @  .    ",
"                                * $ $ ..                ` @ @ @ @ @ +.z ",
"                                # $ $ @.                l @ @ @ @ @ @ @ ",
"                                                            O P m ; ; m ",
"                                                                        ",
"                                                                        ",
"                #.$.%.&.*.=.-.;.>.>.>.>.;.-.=.*.&.%.$.#.                ",
"          ,.'.-.>.>.>.>.>.>.>.>.>.>.>.>.>.>.>.>.>.>.>.>.-.'.,.          ",
"    ).*.>.>.>.>.>.>.>.>.>.>.>.>.>.>.>.>.>.>.>.>.>.>.>.>.>.>.>.>.*.).    ",
"!.~.>.>.>.>.>.>.>.>.>.>.>.>.>.>.>.>.>.>.>.>.>.>.>.>.>.>.>.>.>.>.>.>.~.!.",
">.>.>.>.>.>.>.>.>.>.>.>.>.>.>.>.>.>.>.>.>.>.>.>.>.>.>.>.>.>.>.>.>.>.>.>.",
">.>.>.>.>.>.>.>.>.>.>.>.>.>.>.>.>.>.>.>.>.>.>.>.>.>.>.>.>.>.>.>.>.>.>.>.",
">.>.>.>.>.>.>.>.>.>.>.>.>.>.>.>.>.>.>.>.>.>.>.>.>.>.>.>.>.>.>.>.>.>.>.>.",
">.>.>.>.>.>.>.>.>.>.>.>.>.>.>.>.>.>.>.>.>.>.>.>.>.>.>.>.>.>.>.>.>.>.>.>.",
">.>.>.>.>.>.>.>.>.>.>.>.>.>.>.>.>.>.>.>.>.>.>.>.>.>.>.>.>.>.>.>.>.>.>.>.",
">.>.>.>.>.>.>.>.>.>.>.>.>.>.>.>.>.>.>.>.>.>.>.>.>.>.>.>.>.>.>.>.>.>.>.>.",
">.>.>.>.>.>.>.>.>.>.>.>.>.>.>.>.>.>.>.>.>.>.>.>.>.>.>.>.>.>.>.>.>.>.>.>.",
">.>.>.>.>.>.>.>.>.>.>.>.>.>.>.>.>.>.>.>.>.>.>.>.>.>.>.>.>.>.>.>.>.>.>.>."};
